<mxfile host="app.diagrams.net" agent="Mozilla/5.0 (Windows NT 10.0; Win64; x64) AppleWebKit/537.36 (KHTML, like Gecko) Chrome/129.0.0.0 Safari/537.36" version="24.7.17">
  <diagram name="1 oldal" id="AN7t7Ss8iEj-UZnxhp5L">
    <mxGraphModel dx="2390" dy="2469" grid="1" gridSize="10" guides="1" tooltips="1" connect="1" arrows="1" fold="1" page="1" pageScale="1" pageWidth="827" pageHeight="1169" math="0" shadow="0">
      <root>
        <mxCell id="0" />
        <mxCell id="1" parent="0" />
        <mxCell id="NrB0j8px4sff5QS8ZG-y-1" value="Etterem" style="ellipse;whiteSpace=wrap;html=1;" vertex="1" parent="1">
          <mxGeometry x="354" y="150" width="120" height="80" as="geometry" />
        </mxCell>
        <mxCell id="NrB0j8px4sff5QS8ZG-y-2" value="Etterem" style="ellipse;whiteSpace=wrap;html=1;" vertex="1" parent="1">
          <mxGeometry x="364" y="160" width="100" height="60" as="geometry" />
        </mxCell>
        <mxCell id="NrB0j8px4sff5QS8ZG-y-3" value="&lt;u&gt;Ekod&lt;/u&gt;" style="rhombus;whiteSpace=wrap;html=1;" vertex="1" parent="1">
          <mxGeometry x="90" y="230" width="80" height="80" as="geometry" />
        </mxCell>
        <mxCell id="NrB0j8px4sff5QS8ZG-y-4" value="Cim" style="ellipse;whiteSpace=wrap;html=1;" vertex="1" parent="1">
          <mxGeometry x="354" y="280" width="120" height="80" as="geometry" />
        </mxCell>
        <mxCell id="NrB0j8px4sff5QS8ZG-y-5" value="Nev" style="ellipse;whiteSpace=wrap;html=1;" vertex="1" parent="1">
          <mxGeometry x="220" y="280" width="120" height="80" as="geometry" />
        </mxCell>
        <mxCell id="NrB0j8px4sff5QS8ZG-y-6" value="Csillag" style="ellipse;whiteSpace=wrap;html=1;" vertex="1" parent="1">
          <mxGeometry x="500" y="280" width="120" height="80" as="geometry" />
        </mxCell>
        <mxCell id="NrB0j8px4sff5QS8ZG-y-7" value="Hazszam" style="ellipse;whiteSpace=wrap;html=1;" vertex="1" parent="1">
          <mxGeometry x="520" y="460" width="120" height="80" as="geometry" />
        </mxCell>
        <mxCell id="NrB0j8px4sff5QS8ZG-y-8" value="Utca" style="ellipse;whiteSpace=wrap;html=1;" vertex="1" parent="1">
          <mxGeometry x="364" y="460" width="120" height="80" as="geometry" />
        </mxCell>
        <mxCell id="NrB0j8px4sff5QS8ZG-y-9" value="Varos" style="ellipse;whiteSpace=wrap;html=1;" vertex="1" parent="1">
          <mxGeometry x="230" y="460" width="120" height="80" as="geometry" />
        </mxCell>
        <mxCell id="NrB0j8px4sff5QS8ZG-y-10" value="" style="endArrow=none;html=1;rounded=0;entryX=0.5;entryY=1;entryDx=0;entryDy=0;exitX=0.5;exitY=0;exitDx=0;exitDy=0;" edge="1" parent="1" source="NrB0j8px4sff5QS8ZG-y-9" target="NrB0j8px4sff5QS8ZG-y-4">
          <mxGeometry width="50" height="50" relative="1" as="geometry">
            <mxPoint x="344" y="490" as="sourcePoint" />
            <mxPoint x="394" y="440" as="targetPoint" />
          </mxGeometry>
        </mxCell>
        <mxCell id="NrB0j8px4sff5QS8ZG-y-11" value="" style="endArrow=none;html=1;rounded=0;exitX=0.5;exitY=0;exitDx=0;exitDy=0;" edge="1" parent="1" source="NrB0j8px4sff5QS8ZG-y-8" target="NrB0j8px4sff5QS8ZG-y-4">
          <mxGeometry width="50" height="50" relative="1" as="geometry">
            <mxPoint x="390" y="430" as="sourcePoint" />
            <mxPoint x="440" y="380" as="targetPoint" />
          </mxGeometry>
        </mxCell>
        <mxCell id="NrB0j8px4sff5QS8ZG-y-12" value="" style="endArrow=none;html=1;rounded=0;exitX=0.5;exitY=1;exitDx=0;exitDy=0;" edge="1" parent="1" source="NrB0j8px4sff5QS8ZG-y-4" target="NrB0j8px4sff5QS8ZG-y-7">
          <mxGeometry width="50" height="50" relative="1" as="geometry">
            <mxPoint x="410" y="440" as="sourcePoint" />
            <mxPoint x="440" y="380" as="targetPoint" />
          </mxGeometry>
        </mxCell>
        <mxCell id="NrB0j8px4sff5QS8ZG-y-13" value="" style="endArrow=none;html=1;rounded=0;entryX=0.5;entryY=1;entryDx=0;entryDy=0;exitX=0.5;exitY=0;exitDx=0;exitDy=0;" edge="1" parent="1" source="NrB0j8px4sff5QS8ZG-y-6" target="NrB0j8px4sff5QS8ZG-y-1">
          <mxGeometry width="50" height="50" relative="1" as="geometry">
            <mxPoint x="390" y="430" as="sourcePoint" />
            <mxPoint x="440" y="380" as="targetPoint" />
          </mxGeometry>
        </mxCell>
        <mxCell id="NrB0j8px4sff5QS8ZG-y-14" value="" style="endArrow=none;html=1;rounded=0;entryX=0.5;entryY=1;entryDx=0;entryDy=0;exitX=0.5;exitY=0;exitDx=0;exitDy=0;" edge="1" parent="1" source="NrB0j8px4sff5QS8ZG-y-4" target="NrB0j8px4sff5QS8ZG-y-1">
          <mxGeometry width="50" height="50" relative="1" as="geometry">
            <mxPoint x="390" y="430" as="sourcePoint" />
            <mxPoint x="440" y="380" as="targetPoint" />
          </mxGeometry>
        </mxCell>
        <mxCell id="NrB0j8px4sff5QS8ZG-y-15" value="" style="endArrow=none;html=1;rounded=0;entryX=0.5;entryY=1;entryDx=0;entryDy=0;exitX=0.5;exitY=0;exitDx=0;exitDy=0;" edge="1" parent="1" source="NrB0j8px4sff5QS8ZG-y-5" target="NrB0j8px4sff5QS8ZG-y-1">
          <mxGeometry width="50" height="50" relative="1" as="geometry">
            <mxPoint x="390" y="430" as="sourcePoint" />
            <mxPoint x="440" y="380" as="targetPoint" />
          </mxGeometry>
        </mxCell>
        <mxCell id="NrB0j8px4sff5QS8ZG-y-16" value="" style="endArrow=none;html=1;rounded=0;entryX=0;entryY=0.5;entryDx=0;entryDy=0;exitX=0.5;exitY=0;exitDx=0;exitDy=0;" edge="1" parent="1" source="NrB0j8px4sff5QS8ZG-y-3" target="NrB0j8px4sff5QS8ZG-y-1">
          <mxGeometry width="50" height="50" relative="1" as="geometry">
            <mxPoint x="390" y="430" as="sourcePoint" />
            <mxPoint x="440" y="380" as="targetPoint" />
          </mxGeometry>
        </mxCell>
        <mxCell id="NrB0j8px4sff5QS8ZG-y-19" value="" style="rounded=0;whiteSpace=wrap;html=1;" vertex="1" parent="1">
          <mxGeometry x="540" y="380" width="40" height="60" as="geometry" />
        </mxCell>
        <mxCell id="NrB0j8px4sff5QS8ZG-y-20" value="" style="rounded=0;whiteSpace=wrap;html=1;" vertex="1" parent="1">
          <mxGeometry x="260" y="380" width="40" height="60" as="geometry" />
        </mxCell>
        <mxCell id="NrB0j8px4sff5QS8ZG-y-21" value="" style="rounded=0;whiteSpace=wrap;html=1;" vertex="1" parent="1">
          <mxGeometry x="260" y="560" width="40" height="60" as="geometry" />
        </mxCell>
        <mxCell id="NrB0j8px4sff5QS8ZG-y-22" value="" style="rounded=0;whiteSpace=wrap;html=1;" vertex="1" parent="1">
          <mxGeometry x="404" y="560" width="40" height="60" as="geometry" />
        </mxCell>
        <mxCell id="NrB0j8px4sff5QS8ZG-y-23" value="" style="rounded=0;whiteSpace=wrap;html=1;" vertex="1" parent="1">
          <mxGeometry x="560" y="560" width="40" height="60" as="geometry" />
        </mxCell>
        <mxCell id="NrB0j8px4sff5QS8ZG-y-24" value="" style="endArrow=none;html=1;rounded=0;exitX=0.5;exitY=0;exitDx=0;exitDy=0;entryX=0.425;entryY=1.013;entryDx=0;entryDy=0;entryPerimeter=0;" edge="1" parent="1" source="NrB0j8px4sff5QS8ZG-y-21" target="NrB0j8px4sff5QS8ZG-y-9">
          <mxGeometry width="50" height="50" relative="1" as="geometry">
            <mxPoint x="390" y="430" as="sourcePoint" />
            <mxPoint x="440" y="380" as="targetPoint" />
          </mxGeometry>
        </mxCell>
        <mxCell id="NrB0j8px4sff5QS8ZG-y-25" value="" style="endArrow=none;html=1;rounded=0;exitX=0.5;exitY=0;exitDx=0;exitDy=0;entryX=0.5;entryY=1;entryDx=0;entryDy=0;" edge="1" parent="1" source="NrB0j8px4sff5QS8ZG-y-22" target="NrB0j8px4sff5QS8ZG-y-8">
          <mxGeometry width="50" height="50" relative="1" as="geometry">
            <mxPoint x="390" y="430" as="sourcePoint" />
            <mxPoint x="440" y="380" as="targetPoint" />
          </mxGeometry>
        </mxCell>
        <mxCell id="NrB0j8px4sff5QS8ZG-y-26" value="" style="endArrow=none;html=1;rounded=0;entryX=0.5;entryY=1;entryDx=0;entryDy=0;exitX=0.5;exitY=0;exitDx=0;exitDy=0;" edge="1" parent="1" source="NrB0j8px4sff5QS8ZG-y-23" target="NrB0j8px4sff5QS8ZG-y-7">
          <mxGeometry width="50" height="50" relative="1" as="geometry">
            <mxPoint x="510" y="590" as="sourcePoint" />
            <mxPoint x="560" y="540" as="targetPoint" />
          </mxGeometry>
        </mxCell>
        <mxCell id="NrB0j8px4sff5QS8ZG-y-27" value="" style="endArrow=none;html=1;rounded=0;exitX=0.5;exitY=0;exitDx=0;exitDy=0;entryX=0.5;entryY=1;entryDx=0;entryDy=0;" edge="1" parent="1" source="NrB0j8px4sff5QS8ZG-y-19" target="NrB0j8px4sff5QS8ZG-y-6">
          <mxGeometry width="50" height="50" relative="1" as="geometry">
            <mxPoint x="484" y="410" as="sourcePoint" />
            <mxPoint x="534" y="360" as="targetPoint" />
          </mxGeometry>
        </mxCell>
        <mxCell id="NrB0j8px4sff5QS8ZG-y-28" value="" style="endArrow=none;html=1;rounded=0;exitX=0.5;exitY=0;exitDx=0;exitDy=0;entryX=0.5;entryY=1;entryDx=0;entryDy=0;" edge="1" parent="1" source="NrB0j8px4sff5QS8ZG-y-20" target="NrB0j8px4sff5QS8ZG-y-5">
          <mxGeometry width="50" height="50" relative="1" as="geometry">
            <mxPoint x="314" y="390" as="sourcePoint" />
            <mxPoint x="364" y="340" as="targetPoint" />
          </mxGeometry>
        </mxCell>
        <mxCell id="NrB0j8px4sff5QS8ZG-y-31" value="Vendeglatas" style="ellipse;whiteSpace=wrap;html=1;" vertex="1" parent="1">
          <mxGeometry x="1530" y="-230" width="120" height="80" as="geometry" />
        </mxCell>
        <mxCell id="NrB0j8px4sff5QS8ZG-y-32" value="" style="endArrow=none;html=1;rounded=0;entryX=0.5;entryY=1;entryDx=0;entryDy=0;" edge="1" parent="1" source="NrB0j8px4sff5QS8ZG-y-1" target="NrB0j8px4sff5QS8ZG-y-31">
          <mxGeometry width="50" height="50" relative="1" as="geometry">
            <mxPoint x="500" y="140" as="sourcePoint" />
            <mxPoint x="550" y="90" as="targetPoint" />
          </mxGeometry>
        </mxCell>
        <mxCell id="NrB0j8px4sff5QS8ZG-y-33" value="" style="ellipse;whiteSpace=wrap;html=1;" vertex="1" parent="1">
          <mxGeometry x="820" y="210" width="120" height="80" as="geometry" />
        </mxCell>
        <mxCell id="NrB0j8px4sff5QS8ZG-y-34" value="Foszakacs" style="ellipse;whiteSpace=wrap;html=1;" vertex="1" parent="1">
          <mxGeometry x="830" y="215" width="100" height="70" as="geometry" />
        </mxCell>
        <mxCell id="NrB0j8px4sff5QS8ZG-y-35" value="&lt;u&gt;Fkod&lt;/u&gt;" style="rhombus;whiteSpace=wrap;html=1;" vertex="1" parent="1">
          <mxGeometry x="670" y="270" width="80" height="80" as="geometry" />
        </mxCell>
        <mxCell id="NrB0j8px4sff5QS8ZG-y-36" value="" style="endArrow=none;html=1;rounded=0;exitX=0.5;exitY=0;exitDx=0;exitDy=0;entryX=0;entryY=0.5;entryDx=0;entryDy=0;" edge="1" parent="1" source="NrB0j8px4sff5QS8ZG-y-35" target="NrB0j8px4sff5QS8ZG-y-33">
          <mxGeometry width="50" height="50" relative="1" as="geometry">
            <mxPoint x="810" y="230" as="sourcePoint" />
            <mxPoint x="860" y="180" as="targetPoint" />
          </mxGeometry>
        </mxCell>
        <mxCell id="NrB0j8px4sff5QS8ZG-y-37" value="E_F" style="rhombus;whiteSpace=wrap;html=1;" vertex="1" parent="1">
          <mxGeometry x="1010" y="270" width="80" height="80" as="geometry" />
        </mxCell>
        <mxCell id="NrB0j8px4sff5QS8ZG-y-38" value="" style="endArrow=none;html=1;rounded=0;entryX=0.5;entryY=0;entryDx=0;entryDy=0;exitX=1;exitY=0.5;exitDx=0;exitDy=0;" edge="1" parent="1" source="NrB0j8px4sff5QS8ZG-y-33" target="NrB0j8px4sff5QS8ZG-y-37">
          <mxGeometry width="50" height="50" relative="1" as="geometry">
            <mxPoint x="810" y="230" as="sourcePoint" />
            <mxPoint x="860" y="180" as="targetPoint" />
          </mxGeometry>
        </mxCell>
        <mxCell id="NrB0j8px4sff5QS8ZG-y-41" value="" style="ellipse;whiteSpace=wrap;html=1;" vertex="1" parent="1">
          <mxGeometry x="940" y="380" width="100" height="60" as="geometry" />
        </mxCell>
        <mxCell id="NrB0j8px4sff5QS8ZG-y-42" value="Eletkor" style="ellipse;whiteSpace=wrap;html=1;" vertex="1" parent="1">
          <mxGeometry x="830" y="380" width="100" height="60" as="geometry" />
        </mxCell>
        <mxCell id="NrB0j8px4sff5QS8ZG-y-43" value="Nev" style="ellipse;whiteSpace=wrap;html=1;" vertex="1" parent="1">
          <mxGeometry x="720" y="380" width="100" height="60" as="geometry" />
        </mxCell>
        <mxCell id="NrB0j8px4sff5QS8ZG-y-44" value="" style="endArrow=none;html=1;rounded=0;entryX=0.5;entryY=1;entryDx=0;entryDy=0;exitX=0.5;exitY=0;exitDx=0;exitDy=0;" edge="1" parent="1" source="NrB0j8px4sff5QS8ZG-y-43" target="NrB0j8px4sff5QS8ZG-y-33">
          <mxGeometry width="50" height="50" relative="1" as="geometry">
            <mxPoint x="810" y="400" as="sourcePoint" />
            <mxPoint x="860" y="350" as="targetPoint" />
          </mxGeometry>
        </mxCell>
        <mxCell id="NrB0j8px4sff5QS8ZG-y-45" value="" style="endArrow=none;html=1;rounded=0;entryX=0.5;entryY=1;entryDx=0;entryDy=0;exitX=0.5;exitY=0;exitDx=0;exitDy=0;" edge="1" parent="1" source="NrB0j8px4sff5QS8ZG-y-41" target="NrB0j8px4sff5QS8ZG-y-33">
          <mxGeometry width="50" height="50" relative="1" as="geometry">
            <mxPoint x="810" y="400" as="sourcePoint" />
            <mxPoint x="860" y="350" as="targetPoint" />
          </mxGeometry>
        </mxCell>
        <mxCell id="NrB0j8px4sff5QS8ZG-y-46" value="" style="endArrow=none;html=1;rounded=0;entryX=0.5;entryY=1;entryDx=0;entryDy=0;exitX=0.5;exitY=0;exitDx=0;exitDy=0;" edge="1" parent="1" source="NrB0j8px4sff5QS8ZG-y-42" target="NrB0j8px4sff5QS8ZG-y-33">
          <mxGeometry width="50" height="50" relative="1" as="geometry">
            <mxPoint x="810" y="400" as="sourcePoint" />
            <mxPoint x="860" y="350" as="targetPoint" />
          </mxGeometry>
        </mxCell>
        <mxCell id="NrB0j8px4sff5QS8ZG-y-47" value="Vegzettseg" style="ellipse;whiteSpace=wrap;html=1;" vertex="1" parent="1">
          <mxGeometry x="945" y="385" width="90" height="50" as="geometry" />
        </mxCell>
        <mxCell id="NrB0j8px4sff5QS8ZG-y-49" value="" style="rounded=0;whiteSpace=wrap;html=1;" vertex="1" parent="1">
          <mxGeometry x="970" y="460" width="40" height="60" as="geometry" />
        </mxCell>
        <mxCell id="NrB0j8px4sff5QS8ZG-y-50" value="" style="rounded=0;whiteSpace=wrap;html=1;" vertex="1" parent="1">
          <mxGeometry x="860" y="460" width="40" height="60" as="geometry" />
        </mxCell>
        <mxCell id="NrB0j8px4sff5QS8ZG-y-51" value="" style="rounded=0;whiteSpace=wrap;html=1;" vertex="1" parent="1">
          <mxGeometry x="750" y="460" width="40" height="60" as="geometry" />
        </mxCell>
        <mxCell id="NrB0j8px4sff5QS8ZG-y-52" value="" style="endArrow=none;html=1;rounded=0;exitX=0.5;exitY=0;exitDx=0;exitDy=0;entryX=0.5;entryY=1;entryDx=0;entryDy=0;" edge="1" parent="1" source="NrB0j8px4sff5QS8ZG-y-51" target="NrB0j8px4sff5QS8ZG-y-43">
          <mxGeometry width="50" height="50" relative="1" as="geometry">
            <mxPoint x="810" y="400" as="sourcePoint" />
            <mxPoint x="860" y="350" as="targetPoint" />
          </mxGeometry>
        </mxCell>
        <mxCell id="NrB0j8px4sff5QS8ZG-y-53" value="" style="endArrow=none;html=1;rounded=0;exitX=0.5;exitY=0;exitDx=0;exitDy=0;entryX=0.5;entryY=1;entryDx=0;entryDy=0;" edge="1" parent="1" source="NrB0j8px4sff5QS8ZG-y-50" target="NrB0j8px4sff5QS8ZG-y-42">
          <mxGeometry width="50" height="50" relative="1" as="geometry">
            <mxPoint x="810" y="400" as="sourcePoint" />
            <mxPoint x="860" y="350" as="targetPoint" />
          </mxGeometry>
        </mxCell>
        <mxCell id="NrB0j8px4sff5QS8ZG-y-54" value="" style="endArrow=none;html=1;rounded=0;exitX=0.5;exitY=0;exitDx=0;exitDy=0;entryX=0.5;entryY=1;entryDx=0;entryDy=0;" edge="1" parent="1" source="NrB0j8px4sff5QS8ZG-y-49" target="NrB0j8px4sff5QS8ZG-y-41">
          <mxGeometry width="50" height="50" relative="1" as="geometry">
            <mxPoint x="810" y="400" as="sourcePoint" />
            <mxPoint x="860" y="350" as="targetPoint" />
          </mxGeometry>
        </mxCell>
        <mxCell id="NrB0j8px4sff5QS8ZG-y-55" value="" style="endArrow=none;html=1;rounded=0;exitX=0.5;exitY=0;exitDx=0;exitDy=0;entryX=0.5;entryY=1;entryDx=0;entryDy=0;" edge="1" parent="1" source="NrB0j8px4sff5QS8ZG-y-33" target="NrB0j8px4sff5QS8ZG-y-31">
          <mxGeometry width="50" height="50" relative="1" as="geometry">
            <mxPoint x="830" y="215" as="sourcePoint" />
            <mxPoint x="1540" y="-145" as="targetPoint" />
          </mxGeometry>
        </mxCell>
        <mxCell id="NrB0j8px4sff5QS8ZG-y-56" value="" style="ellipse;whiteSpace=wrap;html=1;" vertex="1" parent="1">
          <mxGeometry x="1210" y="150" width="120" height="80" as="geometry" />
        </mxCell>
        <mxCell id="NrB0j8px4sff5QS8ZG-y-57" value="Vendeg" style="ellipse;whiteSpace=wrap;html=1;" vertex="1" parent="1">
          <mxGeometry x="1215" y="155" width="110" height="70" as="geometry" />
        </mxCell>
        <mxCell id="NrB0j8px4sff5QS8ZG-y-58" value="&lt;u&gt;Vkod&lt;/u&gt;" style="rhombus;whiteSpace=wrap;html=1;" vertex="1" parent="1">
          <mxGeometry x="1130" y="225" width="80" height="80" as="geometry" />
        </mxCell>
        <mxCell id="NrB0j8px4sff5QS8ZG-y-59" value="Rendeles" style="rhombus;whiteSpace=wrap;html=1;" vertex="1" parent="1">
          <mxGeometry x="1330" y="230" width="80" height="80" as="geometry" />
        </mxCell>
        <mxCell id="NrB0j8px4sff5QS8ZG-y-60" value="" style="endArrow=none;html=1;rounded=0;entryX=0;entryY=0.5;entryDx=0;entryDy=0;exitX=0.5;exitY=0;exitDx=0;exitDy=0;" edge="1" parent="1" source="NrB0j8px4sff5QS8ZG-y-58" target="NrB0j8px4sff5QS8ZG-y-56">
          <mxGeometry width="50" height="50" relative="1" as="geometry">
            <mxPoint x="1040" y="400" as="sourcePoint" />
            <mxPoint x="1090" y="350" as="targetPoint" />
          </mxGeometry>
        </mxCell>
        <mxCell id="NrB0j8px4sff5QS8ZG-y-61" value="" style="endArrow=none;html=1;rounded=0;entryX=1;entryY=0.5;entryDx=0;entryDy=0;exitX=0.5;exitY=0;exitDx=0;exitDy=0;" edge="1" parent="1" source="NrB0j8px4sff5QS8ZG-y-59" target="NrB0j8px4sff5QS8ZG-y-56">
          <mxGeometry width="50" height="50" relative="1" as="geometry">
            <mxPoint x="1040" y="400" as="sourcePoint" />
            <mxPoint x="1090" y="350" as="targetPoint" />
          </mxGeometry>
        </mxCell>
        <mxCell id="NrB0j8px4sff5QS8ZG-y-63" value="Eletkor" style="ellipse;whiteSpace=wrap;html=1;" vertex="1" parent="1">
          <mxGeometry x="1220" y="340" width="100" height="60" as="geometry" />
        </mxCell>
        <mxCell id="NrB0j8px4sff5QS8ZG-y-64" value="Nev" style="ellipse;whiteSpace=wrap;html=1;" vertex="1" parent="1">
          <mxGeometry x="1110" y="340" width="100" height="60" as="geometry" />
        </mxCell>
        <mxCell id="NrB0j8px4sff5QS8ZG-y-65" value="Cim" style="ellipse;whiteSpace=wrap;html=1;" vertex="1" parent="1">
          <mxGeometry x="1330" y="340" width="100" height="60" as="geometry" />
        </mxCell>
        <mxCell id="NrB0j8px4sff5QS8ZG-y-66" value="" style="endArrow=none;html=1;rounded=0;entryX=0.5;entryY=1;entryDx=0;entryDy=0;exitX=0.5;exitY=0;exitDx=0;exitDy=0;" edge="1" parent="1" source="NrB0j8px4sff5QS8ZG-y-64" target="NrB0j8px4sff5QS8ZG-y-56">
          <mxGeometry width="50" height="50" relative="1" as="geometry">
            <mxPoint x="1040" y="400" as="sourcePoint" />
            <mxPoint x="1090" y="350" as="targetPoint" />
          </mxGeometry>
        </mxCell>
        <mxCell id="NrB0j8px4sff5QS8ZG-y-67" value="" style="endArrow=none;html=1;rounded=0;entryX=0.5;entryY=1;entryDx=0;entryDy=0;exitX=0.5;exitY=0;exitDx=0;exitDy=0;" edge="1" parent="1" source="NrB0j8px4sff5QS8ZG-y-63" target="NrB0j8px4sff5QS8ZG-y-56">
          <mxGeometry width="50" height="50" relative="1" as="geometry">
            <mxPoint x="1040" y="400" as="sourcePoint" />
            <mxPoint x="1090" y="350" as="targetPoint" />
          </mxGeometry>
        </mxCell>
        <mxCell id="NrB0j8px4sff5QS8ZG-y-68" value="" style="endArrow=none;html=1;rounded=0;entryX=0.5;entryY=1;entryDx=0;entryDy=0;exitX=0.5;exitY=0;exitDx=0;exitDy=0;" edge="1" parent="1" source="NrB0j8px4sff5QS8ZG-y-65" target="NrB0j8px4sff5QS8ZG-y-56">
          <mxGeometry width="50" height="50" relative="1" as="geometry">
            <mxPoint x="1040" y="400" as="sourcePoint" />
            <mxPoint x="1090" y="350" as="targetPoint" />
          </mxGeometry>
        </mxCell>
        <mxCell id="NrB0j8px4sff5QS8ZG-y-69" value="Hazszam" style="ellipse;whiteSpace=wrap;html=1;" vertex="1" parent="1">
          <mxGeometry x="1440" y="430" width="100" height="60" as="geometry" />
        </mxCell>
        <mxCell id="NrB0j8px4sff5QS8ZG-y-70" value="Varos" style="ellipse;whiteSpace=wrap;html=1;" vertex="1" parent="1">
          <mxGeometry x="1220" y="430" width="100" height="60" as="geometry" />
        </mxCell>
        <mxCell id="NrB0j8px4sff5QS8ZG-y-71" value="Utca" style="ellipse;whiteSpace=wrap;html=1;" vertex="1" parent="1">
          <mxGeometry x="1330" y="430" width="100" height="60" as="geometry" />
        </mxCell>
        <mxCell id="NrB0j8px4sff5QS8ZG-y-72" value="" style="endArrow=none;html=1;rounded=0;entryX=0.5;entryY=1;entryDx=0;entryDy=0;exitX=0.5;exitY=0;exitDx=0;exitDy=0;" edge="1" parent="1" source="NrB0j8px4sff5QS8ZG-y-70" target="NrB0j8px4sff5QS8ZG-y-65">
          <mxGeometry width="50" height="50" relative="1" as="geometry">
            <mxPoint x="1040" y="400" as="sourcePoint" />
            <mxPoint x="1090" y="350" as="targetPoint" />
          </mxGeometry>
        </mxCell>
        <mxCell id="NrB0j8px4sff5QS8ZG-y-73" value="" style="endArrow=none;html=1;rounded=0;entryX=0.5;entryY=1;entryDx=0;entryDy=0;exitX=0.5;exitY=0;exitDx=0;exitDy=0;" edge="1" parent="1" source="NrB0j8px4sff5QS8ZG-y-69" target="NrB0j8px4sff5QS8ZG-y-65">
          <mxGeometry width="50" height="50" relative="1" as="geometry">
            <mxPoint x="1040" y="400" as="sourcePoint" />
            <mxPoint x="1090" y="350" as="targetPoint" />
          </mxGeometry>
        </mxCell>
        <mxCell id="NrB0j8px4sff5QS8ZG-y-74" value="" style="endArrow=none;html=1;rounded=0;entryX=0.5;entryY=1;entryDx=0;entryDy=0;exitX=0.5;exitY=0;exitDx=0;exitDy=0;" edge="1" parent="1" source="NrB0j8px4sff5QS8ZG-y-71" target="NrB0j8px4sff5QS8ZG-y-65">
          <mxGeometry width="50" height="50" relative="1" as="geometry">
            <mxPoint x="1040" y="400" as="sourcePoint" />
            <mxPoint x="1090" y="350" as="targetPoint" />
          </mxGeometry>
        </mxCell>
        <mxCell id="NrB0j8px4sff5QS8ZG-y-75" value="Etel" style="ellipse;whiteSpace=wrap;html=1;" vertex="1" parent="1">
          <mxGeometry x="1430" y="310" width="100" height="60" as="geometry" />
        </mxCell>
        <mxCell id="NrB0j8px4sff5QS8ZG-y-76" value="Osszeg" style="ellipse;whiteSpace=wrap;html=1;" vertex="1" parent="1">
          <mxGeometry x="1430" y="170" width="100" height="60" as="geometry" />
        </mxCell>
        <mxCell id="NrB0j8px4sff5QS8ZG-y-77" value="" style="endArrow=none;html=1;rounded=0;entryX=0;entryY=0.5;entryDx=0;entryDy=0;exitX=0.5;exitY=0;exitDx=0;exitDy=0;" edge="1" parent="1" source="NrB0j8px4sff5QS8ZG-y-59" target="NrB0j8px4sff5QS8ZG-y-76">
          <mxGeometry width="50" height="50" relative="1" as="geometry">
            <mxPoint x="1040" y="400" as="sourcePoint" />
            <mxPoint x="1090" y="350" as="targetPoint" />
          </mxGeometry>
        </mxCell>
        <mxCell id="NrB0j8px4sff5QS8ZG-y-78" value="" style="endArrow=none;html=1;rounded=0;entryX=0.5;entryY=1;entryDx=0;entryDy=0;exitX=0;exitY=0.5;exitDx=0;exitDy=0;" edge="1" parent="1" source="NrB0j8px4sff5QS8ZG-y-75" target="NrB0j8px4sff5QS8ZG-y-59">
          <mxGeometry width="50" height="50" relative="1" as="geometry">
            <mxPoint x="1040" y="400" as="sourcePoint" />
            <mxPoint x="1090" y="350" as="targetPoint" />
          </mxGeometry>
        </mxCell>
        <mxCell id="NrB0j8px4sff5QS8ZG-y-79" value="" style="endArrow=none;html=1;rounded=0;entryX=0.5;entryY=1;entryDx=0;entryDy=0;exitX=0.5;exitY=0;exitDx=0;exitDy=0;" edge="1" parent="1" source="NrB0j8px4sff5QS8ZG-y-56" target="NrB0j8px4sff5QS8ZG-y-31">
          <mxGeometry width="50" height="50" relative="1" as="geometry">
            <mxPoint x="1200" y="150" as="sourcePoint" />
            <mxPoint x="1250" y="100" as="targetPoint" />
          </mxGeometry>
        </mxCell>
        <mxCell id="NrB0j8px4sff5QS8ZG-y-81" value="" style="ellipse;whiteSpace=wrap;html=1;" vertex="1" parent="1">
          <mxGeometry x="1730" y="150" width="120" height="80" as="geometry" />
        </mxCell>
        <mxCell id="NrB0j8px4sff5QS8ZG-y-82" value="Szakacs" style="ellipse;whiteSpace=wrap;html=1;" vertex="1" parent="1">
          <mxGeometry x="1735" y="155" width="110" height="70" as="geometry" />
        </mxCell>
        <mxCell id="NrB0j8px4sff5QS8ZG-y-83" value="&lt;u&gt;Szkod&lt;/u&gt;" style="rhombus;whiteSpace=wrap;html=1;" vertex="1" parent="1">
          <mxGeometry x="1590" y="190" width="80" height="80" as="geometry" />
        </mxCell>
        <mxCell id="NrB0j8px4sff5QS8ZG-y-85" value="&lt;u&gt;E_Sz&lt;/u&gt;" style="rhombus;whiteSpace=wrap;html=1;" vertex="1" parent="1">
          <mxGeometry x="1920" y="190" width="80" height="80" as="geometry" />
        </mxCell>
        <mxCell id="NrB0j8px4sff5QS8ZG-y-86" value="" style="endArrow=none;html=1;rounded=0;exitX=0.5;exitY=0;exitDx=0;exitDy=0;entryX=1;entryY=0.5;entryDx=0;entryDy=0;" edge="1" parent="1" source="NrB0j8px4sff5QS8ZG-y-85" target="NrB0j8px4sff5QS8ZG-y-81">
          <mxGeometry width="50" height="50" relative="1" as="geometry">
            <mxPoint x="1500" y="160" as="sourcePoint" />
            <mxPoint x="1550" y="110" as="targetPoint" />
          </mxGeometry>
        </mxCell>
        <mxCell id="NrB0j8px4sff5QS8ZG-y-87" value="" style="endArrow=none;html=1;rounded=0;exitX=0.5;exitY=0;exitDx=0;exitDy=0;entryX=0;entryY=0.5;entryDx=0;entryDy=0;" edge="1" parent="1" source="NrB0j8px4sff5QS8ZG-y-83" target="NrB0j8px4sff5QS8ZG-y-81">
          <mxGeometry width="50" height="50" relative="1" as="geometry">
            <mxPoint x="1500" y="160" as="sourcePoint" />
            <mxPoint x="1550" y="110" as="targetPoint" />
          </mxGeometry>
        </mxCell>
        <mxCell id="NrB0j8px4sff5QS8ZG-y-88" value="Nev" style="ellipse;whiteSpace=wrap;html=1;" vertex="1" parent="1">
          <mxGeometry x="1850" y="290" width="100" height="60" as="geometry" />
        </mxCell>
        <mxCell id="NrB0j8px4sff5QS8ZG-y-89" value="Nev" style="ellipse;whiteSpace=wrap;html=1;" vertex="1" parent="1">
          <mxGeometry x="1630" y="290" width="100" height="60" as="geometry" />
        </mxCell>
        <mxCell id="NrB0j8px4sff5QS8ZG-y-90" value="Reszleg" style="ellipse;whiteSpace=wrap;html=1;" vertex="1" parent="1">
          <mxGeometry x="1740" y="290" width="100" height="60" as="geometry" />
        </mxCell>
        <mxCell id="NrB0j8px4sff5QS8ZG-y-91" value="" style="endArrow=none;html=1;rounded=0;exitX=0.5;exitY=0;exitDx=0;exitDy=0;entryX=0.5;entryY=1;entryDx=0;entryDy=0;" edge="1" parent="1" source="NrB0j8px4sff5QS8ZG-y-88" target="NrB0j8px4sff5QS8ZG-y-81">
          <mxGeometry width="50" height="50" relative="1" as="geometry">
            <mxPoint x="1500" y="160" as="sourcePoint" />
            <mxPoint x="1550" y="110" as="targetPoint" />
          </mxGeometry>
        </mxCell>
        <mxCell id="NrB0j8px4sff5QS8ZG-y-92" value="" style="endArrow=none;html=1;rounded=0;exitX=0.5;exitY=0;exitDx=0;exitDy=0;entryX=0.5;entryY=1;entryDx=0;entryDy=0;" edge="1" parent="1" source="NrB0j8px4sff5QS8ZG-y-90" target="NrB0j8px4sff5QS8ZG-y-81">
          <mxGeometry width="50" height="50" relative="1" as="geometry">
            <mxPoint x="1500" y="160" as="sourcePoint" />
            <mxPoint x="1550" y="110" as="targetPoint" />
          </mxGeometry>
        </mxCell>
        <mxCell id="NrB0j8px4sff5QS8ZG-y-93" value="" style="endArrow=none;html=1;rounded=0;exitX=0.5;exitY=0;exitDx=0;exitDy=0;entryX=0.5;entryY=1;entryDx=0;entryDy=0;" edge="1" parent="1" source="NrB0j8px4sff5QS8ZG-y-89" target="NrB0j8px4sff5QS8ZG-y-81">
          <mxGeometry width="50" height="50" relative="1" as="geometry">
            <mxPoint x="1500" y="160" as="sourcePoint" />
            <mxPoint x="1550" y="110" as="targetPoint" />
          </mxGeometry>
        </mxCell>
        <mxCell id="NrB0j8px4sff5QS8ZG-y-94" value="Vegzettseg" style="ellipse;whiteSpace=wrap;html=1;" vertex="1" parent="1">
          <mxGeometry x="1855" y="295" width="90" height="50" as="geometry" />
        </mxCell>
        <mxCell id="NrB0j8px4sff5QS8ZG-y-95" value="" style="endArrow=none;html=1;rounded=0;entryX=0.5;entryY=1;entryDx=0;entryDy=0;exitX=0.5;exitY=0;exitDx=0;exitDy=0;" edge="1" parent="1" source="NrB0j8px4sff5QS8ZG-y-81" target="NrB0j8px4sff5QS8ZG-y-31">
          <mxGeometry width="50" height="50" relative="1" as="geometry">
            <mxPoint x="1500" y="160" as="sourcePoint" />
            <mxPoint x="1550" y="110" as="targetPoint" />
          </mxGeometry>
        </mxCell>
        <mxCell id="NrB0j8px4sff5QS8ZG-y-96" value="" style="rounded=0;whiteSpace=wrap;html=1;" vertex="1" parent="1">
          <mxGeometry x="1880" y="375" width="40" height="60" as="geometry" />
        </mxCell>
        <mxCell id="NrB0j8px4sff5QS8ZG-y-97" value="" style="rounded=0;whiteSpace=wrap;html=1;" vertex="1" parent="1">
          <mxGeometry x="1770" y="375" width="40" height="60" as="geometry" />
        </mxCell>
        <mxCell id="NrB0j8px4sff5QS8ZG-y-98" value="" style="rounded=0;whiteSpace=wrap;html=1;" vertex="1" parent="1">
          <mxGeometry x="1660" y="375" width="40" height="60" as="geometry" />
        </mxCell>
        <mxCell id="NrB0j8px4sff5QS8ZG-y-99" value="" style="endArrow=none;html=1;rounded=0;exitX=0.5;exitY=0;exitDx=0;exitDy=0;entryX=0.5;entryY=1;entryDx=0;entryDy=0;" edge="1" parent="1" source="NrB0j8px4sff5QS8ZG-y-98" target="NrB0j8px4sff5QS8ZG-y-89">
          <mxGeometry width="50" height="50" relative="1" as="geometry">
            <mxPoint x="1500" y="350" as="sourcePoint" />
            <mxPoint x="1550" y="300" as="targetPoint" />
          </mxGeometry>
        </mxCell>
        <mxCell id="NrB0j8px4sff5QS8ZG-y-100" value="" style="endArrow=none;html=1;rounded=0;exitX=0.5;exitY=0;exitDx=0;exitDy=0;entryX=0.5;entryY=1;entryDx=0;entryDy=0;" edge="1" parent="1" source="NrB0j8px4sff5QS8ZG-y-97" target="NrB0j8px4sff5QS8ZG-y-90">
          <mxGeometry width="50" height="50" relative="1" as="geometry">
            <mxPoint x="1500" y="350" as="sourcePoint" />
            <mxPoint x="1550" y="300" as="targetPoint" />
          </mxGeometry>
        </mxCell>
        <mxCell id="NrB0j8px4sff5QS8ZG-y-101" value="" style="endArrow=none;html=1;rounded=0;exitX=0.5;exitY=0;exitDx=0;exitDy=0;entryX=0.5;entryY=1;entryDx=0;entryDy=0;" edge="1" parent="1" source="NrB0j8px4sff5QS8ZG-y-96" target="NrB0j8px4sff5QS8ZG-y-88">
          <mxGeometry width="50" height="50" relative="1" as="geometry">
            <mxPoint x="1500" y="350" as="sourcePoint" />
            <mxPoint x="1550" y="300" as="targetPoint" />
          </mxGeometry>
        </mxCell>
        <mxCell id="NrB0j8px4sff5QS8ZG-y-103" value="" style="ellipse;whiteSpace=wrap;html=1;" vertex="1" parent="1">
          <mxGeometry x="2130" y="150" width="120" height="80" as="geometry" />
        </mxCell>
        <mxCell id="NrB0j8px4sff5QS8ZG-y-104" value="Gyakornok" style="ellipse;whiteSpace=wrap;html=1;" vertex="1" parent="1">
          <mxGeometry x="2135" y="155" width="110" height="70" as="geometry" />
        </mxCell>
        <mxCell id="NrB0j8px4sff5QS8ZG-y-105" value="" style="endArrow=none;html=1;rounded=0;entryX=0.5;entryY=1;entryDx=0;entryDy=0;exitX=0.5;exitY=0;exitDx=0;exitDy=0;" edge="1" parent="1" source="NrB0j8px4sff5QS8ZG-y-103" target="NrB0j8px4sff5QS8ZG-y-31">
          <mxGeometry width="50" height="50" relative="1" as="geometry">
            <mxPoint x="1990" y="60" as="sourcePoint" />
            <mxPoint x="2040" y="10" as="targetPoint" />
          </mxGeometry>
        </mxCell>
        <mxCell id="NrB0j8px4sff5QS8ZG-y-106" value="Gykod" style="rhombus;whiteSpace=wrap;html=1;" vertex="1" parent="1">
          <mxGeometry x="2010" y="190" width="80" height="80" as="geometry" />
        </mxCell>
        <mxCell id="NrB0j8px4sff5QS8ZG-y-107" value="Nev" style="ellipse;whiteSpace=wrap;html=1;" vertex="1" parent="1">
          <mxGeometry x="2020" y="270" width="100" height="60" as="geometry" />
        </mxCell>
        <mxCell id="NrB0j8px4sff5QS8ZG-y-108" value="Gyakorlat" style="ellipse;whiteSpace=wrap;html=1;" vertex="1" parent="1">
          <mxGeometry x="2140" y="270" width="100" height="60" as="geometry" />
        </mxCell>
        <mxCell id="NrB0j8px4sff5QS8ZG-y-109" value="Reszleg" style="ellipse;whiteSpace=wrap;html=1;" vertex="1" parent="1">
          <mxGeometry x="2260" y="270" width="100" height="60" as="geometry" />
        </mxCell>
        <mxCell id="NrB0j8px4sff5QS8ZG-y-110" value="Idotartama" style="ellipse;whiteSpace=wrap;html=1;" vertex="1" parent="1">
          <mxGeometry x="2200" y="370" width="100" height="60" as="geometry" />
        </mxCell>
        <mxCell id="NrB0j8px4sff5QS8ZG-y-111" value="Kezdete" style="ellipse;whiteSpace=wrap;html=1;" vertex="1" parent="1">
          <mxGeometry x="2080" y="370" width="100" height="60" as="geometry" />
        </mxCell>
        <mxCell id="NrB0j8px4sff5QS8ZG-y-112" value="Muszak" style="ellipse;whiteSpace=wrap;html=1;" vertex="1" parent="1">
          <mxGeometry x="2265" y="275" width="90" height="50" as="geometry" />
        </mxCell>
        <mxCell id="NrB0j8px4sff5QS8ZG-y-113" value="" style="endArrow=none;html=1;rounded=0;entryX=0.5;entryY=1;entryDx=0;entryDy=0;exitX=0.5;exitY=0;exitDx=0;exitDy=0;" edge="1" parent="1" source="NrB0j8px4sff5QS8ZG-y-109" target="NrB0j8px4sff5QS8ZG-y-103">
          <mxGeometry width="50" height="50" relative="1" as="geometry">
            <mxPoint x="2040" y="350" as="sourcePoint" />
            <mxPoint x="2090" y="300" as="targetPoint" />
          </mxGeometry>
        </mxCell>
        <mxCell id="NrB0j8px4sff5QS8ZG-y-114" value="" style="endArrow=none;html=1;rounded=0;entryX=0.5;entryY=1;entryDx=0;entryDy=0;exitX=0.5;exitY=0;exitDx=0;exitDy=0;" edge="1" parent="1" source="NrB0j8px4sff5QS8ZG-y-108" target="NrB0j8px4sff5QS8ZG-y-103">
          <mxGeometry width="50" height="50" relative="1" as="geometry">
            <mxPoint x="2040" y="350" as="sourcePoint" />
            <mxPoint x="2090" y="300" as="targetPoint" />
          </mxGeometry>
        </mxCell>
        <mxCell id="NrB0j8px4sff5QS8ZG-y-115" value="" style="endArrow=none;html=1;rounded=0;entryX=0.5;entryY=1;entryDx=0;entryDy=0;exitX=0.5;exitY=0;exitDx=0;exitDy=0;" edge="1" parent="1" source="NrB0j8px4sff5QS8ZG-y-107" target="NrB0j8px4sff5QS8ZG-y-103">
          <mxGeometry width="50" height="50" relative="1" as="geometry">
            <mxPoint x="2040" y="350" as="sourcePoint" />
            <mxPoint x="2090" y="300" as="targetPoint" />
          </mxGeometry>
        </mxCell>
        <mxCell id="NrB0j8px4sff5QS8ZG-y-116" value="" style="endArrow=none;html=1;rounded=0;entryX=0.5;entryY=1;entryDx=0;entryDy=0;exitX=0.5;exitY=0;exitDx=0;exitDy=0;" edge="1" parent="1" source="NrB0j8px4sff5QS8ZG-y-110" target="NrB0j8px4sff5QS8ZG-y-108">
          <mxGeometry width="50" height="50" relative="1" as="geometry">
            <mxPoint x="2040" y="350" as="sourcePoint" />
            <mxPoint x="2090" y="300" as="targetPoint" />
          </mxGeometry>
        </mxCell>
        <mxCell id="NrB0j8px4sff5QS8ZG-y-117" value="" style="endArrow=none;html=1;rounded=0;entryX=0.5;entryY=1;entryDx=0;entryDy=0;exitX=0.5;exitY=0;exitDx=0;exitDy=0;" edge="1" parent="1" source="NrB0j8px4sff5QS8ZG-y-111" target="NrB0j8px4sff5QS8ZG-y-108">
          <mxGeometry width="50" height="50" relative="1" as="geometry">
            <mxPoint x="2040" y="350" as="sourcePoint" />
            <mxPoint x="2090" y="300" as="targetPoint" />
          </mxGeometry>
        </mxCell>
        <mxCell id="NrB0j8px4sff5QS8ZG-y-118" value="" style="endArrow=none;html=1;rounded=0;exitX=0.5;exitY=0;exitDx=0;exitDy=0;entryX=0;entryY=0.5;entryDx=0;entryDy=0;" edge="1" parent="1" source="NrB0j8px4sff5QS8ZG-y-106" target="NrB0j8px4sff5QS8ZG-y-103">
          <mxGeometry width="50" height="50" relative="1" as="geometry">
            <mxPoint x="2040" y="350" as="sourcePoint" />
            <mxPoint x="2090" y="300" as="targetPoint" />
          </mxGeometry>
        </mxCell>
        <mxCell id="NrB0j8px4sff5QS8ZG-y-119" value="E_Gy" style="rhombus;whiteSpace=wrap;html=1;" vertex="1" parent="1">
          <mxGeometry x="2300" y="190" width="80" height="80" as="geometry" />
        </mxCell>
        <mxCell id="NrB0j8px4sff5QS8ZG-y-120" value="" style="endArrow=none;html=1;rounded=0;entryX=1;entryY=0.5;entryDx=0;entryDy=0;exitX=0.5;exitY=0;exitDx=0;exitDy=0;" edge="1" parent="1" source="NrB0j8px4sff5QS8ZG-y-119" target="NrB0j8px4sff5QS8ZG-y-103">
          <mxGeometry width="50" height="50" relative="1" as="geometry">
            <mxPoint x="2040" y="350" as="sourcePoint" />
            <mxPoint x="2090" y="300" as="targetPoint" />
          </mxGeometry>
        </mxCell>
      </root>
    </mxGraphModel>
  </diagram>
</mxfile>
